<!DOCTYPE svg PUBLIC "-//W3C//DTD SVG 20010904//EN" "http://www.w3.org/TR/2001/REC-SVG-20010904/DTD/svg10.dtd">
<svg version="1.0" xmlns="http://www.w3.org/2000/svg" width="1600px" height="1600px" viewBox="0 0 16000 16000" preserveAspectRatio="xMidYMid meet">
<g id="layer101" fill="#ffffff" stroke="none">
 <path d="M7260 14680 c0 -497 3 -630 13 -630 6 0 41 5 77 10 158 22 358 31 670 31 357 0 626 -16 778 -47 l22 -4 0 635 0 635 -780 0 -780 0 0 -630z"/>
 <path d="M7722 13730 c-419 -28 -824 -94 -1177 -192 -154 -43 -469 -145 -535 -173 -30 -13 -97 -40 -148 -60 -158 -62 -467 -212 -622 -301 -274 -158 -488 -302 -715 -479 -123 -96 -126 -98 -144 -115 -9 -8 -64 -56 -121 -106 -269 -234 -647 -649 -837 -919 -23 -33 -59 -84 -80 -114 -21 -29 -43 -60 -48 -70 -42 -66 -71 -112 -94 -146 -71 -103 -269 -469 -344 -635 -14 -30 -38 -84 -54 -120 -27 -60 -116 -287 -158 -405 -54 -152 -133 -432 -178 -635 -153 -677 -174 -1489 -56 -2185 76 -446 234 -983 392 -1326 14 -30 40 -88 58 -129 40 -90 186 -370 236 -454 20 -34 67 -110 105 -171 38 -60 74 -119 81 -130 7 -10 38 -55 69 -100 31 -44 67 -95 80 -113 43 -62 201 -257 314 -389 134 -155 377 -400 518 -521 55 -48 108 -94 116 -102 9 -8 31 -26 50 -40 19 -14 48 -37 64 -51 29 -24 238 -180 316 -235 19 -14 71 -48 115 -76 44 -28 103 -65 130 -83 138 -88 395 -225 620 -330 202 -94 594 -240 770 -287 440 -116 719 -167 1150 -210 156 -16 745 -16 900 0 540 54 895 125 1330 268 238 79 402 142 590 229 113 52 395 193 410 205 6 4 55 34 110 65 55 32 145 88 200 124 55 36 107 70 116 76 49 31 212 148 254 182 6 5 53 42 105 82 304 237 635 569 906 908 49 61 97 122 106 135 71 96 123 170 152 213 81 120 165 255 201 320 21 39 46 81 55 95 21 31 187 357 217 425 12 28 34 77 48 110 238 545 405 1224 447 1820 14 206 14 674 0 880 -42 601 -211 1286 -452 1830 -17 39 -39 88 -48 110 -9 22 -54 114 -100 205 -78 153 -119 226 -179 322 -13 21 -23 40 -23 43 0 9 -243 371 -302 451 -326 439 -738 853 -1163 1168 -44 33 -96 72 -115 86 -83 63 -351 233 -495 315 -194 111 -515 266 -680 329 -38 15 -91 36 -116 46 -65 27 -395 133 -524 169 -456 125 -909 187 -1420 195 -148 3 -330 1 -403 -4z m118 -5696 l0 -3906 -117 7 c-355 20 -837 134 -1193 280 -115 47 -402 191 -488 244 -46 28 -85 51 -88 51 -12 0 -304 205 -369 260 -23 19 -51 42 -61 50 -271 223 -519 491 -725 786 -97 138 -87 123 -178 279 -107 185 -168 312 -272 567 -51 125 -131 404 -174 603 -53 252 -69 423 -69 760 -1 352 11 492 70 785 73 362 204 735 365 1035 17 33 39 74 48 90 187 348 506 742 836 1035 614 543 1431 896 2220 960 124 10 160 14 188 19 4 0 7 -1757 7 -3905z"/>
 <path d="M2930 13448 c-186 -206 -389 -429 -449 -493 -26 -27 -89 -97 -141 -155 -52 -58 -144 -158 -204 -223 l-109 -118 74 -68 c41 -38 207 -189 369 -336 162 -147 340 -309 395 -360 55 -50 121 -110 146 -133 l46 -42 29 42 c196 290 650 790 928 1023 89 75 108 99 87 107 -5 2 -53 44 -107 94 -276 254 -764 698 -828 753 -28 24 -55 50 -59 57 -4 8 -13 14 -20 14 -7 -1 -77 -73 -157 -162z"/>
 <path d="M13044 13587 c-11 -12 -60 -58 -109 -102 -71 -64 -288 -261 -341 -310 -6 -5 -49 -44 -95 -86 -126 -114 -428 -389 -474 -431 l-40 -37 45 -38 c89 -76 368 -352 488 -483 93 -102 118 -130 210 -245 104 -127 211 -271 286 -380 16 -22 11 -26 276 215 74 68 175 160 224 204 49 45 101 92 116 106 36 34 86 79 280 254 91 82 178 162 194 177 l29 28 -45 48 c-109 117 -184 198 -319 348 -79 88 -196 216 -259 285 -63 69 -154 168 -201 220 -47 52 -116 129 -154 170 -37 41 -73 76 -79 77 -6 0 -20 -9 -32 -20z"/>
 <path d="M690 8195 l0 -785 641 0 641 0 -6 108 c-27 478 -16 923 30 1266 13 99 24 183 24 188 0 4 -299 8 -665 8 l-665 0 0 -785z"/>
 <path d="M14025 8928 c3 -29 13 -105 21 -168 45 -363 58 -858 29 -1180 -8 -91 -15 -166 -15 -167 0 -2 281 -3 625 -3 l625 0 0 785 0 785 -645 0 -646 0 6 -52z"/>
 <path d="M12975 4518 c-119 -162 -158 -213 -235 -309 -175 -219 -489 -549 -670 -706 -19 -17 -50 -43 -69 -59 l-33 -30 98 -89 c54 -50 157 -144 229 -210 144 -132 525 -479 589 -536 23 -20 66 -60 96 -88 30 -28 58 -51 61 -51 6 0 89 89 444 480 147 162 291 320 319 351 254 275 289 316 280 330 -4 6 -25 28 -47 48 -23 20 -53 47 -67 61 -15 14 -114 104 -221 200 -106 96 -252 229 -324 294 -363 332 -400 366 -407 366 -2 0 -21 -24 -43 -52z"/>
 <path d="M3054 4496 c-6 -6 -53 -49 -105 -96 -51 -47 -150 -136 -219 -199 -69 -63 -165 -151 -215 -196 -278 -253 -445 -408 -445 -414 0 -7 61 -75 296 -331 28 -30 122 -134 209 -230 87 -96 167 -185 179 -196 11 -12 97 -105 190 -208 93 -102 172 -186 175 -186 5 0 132 114 372 334 30 28 75 69 100 91 24 22 98 90 164 150 67 61 161 146 210 190 177 159 171 153 155 168 -8 8 -64 56 -125 108 -273 234 -719 724 -881 966 -40 61 -45 65 -60 49z"/>
 <path d="M8760 1999 c-359 -54 -1167 -56 -1467 -3 l-33 6 0 -656 0 -656 780 0 780 0 0 660 c0 363 -1 659 -2 659 -2 -1 -28 -5 -58 -10z"/>
 </g>

</svg>