<!DOCTYPE svg PUBLIC "-//W3C//DTD SVG 20010904//EN" "http://www.w3.org/TR/2001/REC-SVG-20010904/DTD/svg10.dtd">
<svg version="1.0" xmlns="http://www.w3.org/2000/svg" width="687px" height="655px" viewBox="0 0 6870 6550" preserveAspectRatio="xMidYMid meet">
<g id="layer101" fill="#ffffff" stroke="none">
 <path d="M3205 6334 c-16 -2 -73 -9 -125 -15 -362 -41 -783 -179 -1104 -361 -260 -147 -459 -299 -676 -517 -395 -397 -655 -850 -795 -1386 -75 -288 -100 -516 -92 -853 7 -303 35 -496 112 -761 145 -504 403 -940 779 -1317 488 -487 1090 -783 1781 -876 134 -18 626 -18 760 0 573 77 1093 298 1539 654 134 107 381 357 482 488 346 445 545 913 630 1473 21 141 30 543 15 704 -56 598 -280 1154 -653 1625 -102 130 -353 381 -478 480 -479 377 -1024 599 -1619 658 -94 9 -485 12 -556 4z m770 -428 c556 -117 1025 -370 1400 -758 415 -427 670 -962 741 -1548 16 -137 18 -462 4 -598 -66 -608 -335 -1168 -770 -1602 -399 -399 -879 -647 -1440 -747 -179 -31 -526 -43 -716 -23 -895 91 -1698 640 -2104 1440 -130 256 -206 486 -257 770 -31 179 -43 526 -23 716 62 611 332 1176 770 1614 382 383 852 634 1375 734 72 14 144 27 160 30 17 2 188 3 380 2 339 -2 354 -3 480 -30z"/>
 <path d="M3345 4686 c-60 -27 -131 -103 -145 -155 -6 -22 -10 -296 -10 -733 l0 -698 -278 0 c-273 0 -280 -1 -323 -23 -24 -13 -57 -43 -74 -66 -41 -58 -47 -155 -13 -221 31 -61 839 -832 901 -860 63 -29 140 -26 208 8 48 23 115 88 435 421 209 216 387 409 396 430 22 46 23 142 2 184 -23 45 -63 86 -106 108 -34 17 -61 19 -318 19 l-280 0 0 705 c0 781 3 738 -67 815 -80 89 -219 117 -328 66z"/>
 </g>

</svg>