<!DOCTYPE svg PUBLIC "-//W3C//DTD SVG 20010904//EN" "http://www.w3.org/TR/2001/REC-SVG-20010904/DTD/svg10.dtd">
<svg version="1.0" xmlns="http://www.w3.org/2000/svg" width="1600px" height="1600px" viewBox="0 0 16000 16000" preserveAspectRatio="xMidYMid meet">
<g id="layer101" fill="#ffffff" stroke="none">
 <path d="M10870 14380 l0 -870 900 0 900 0 0 870 0 870 -900 0 -900 0 0 -870z"/>
 <path d="M3010 6705 l0 -6005 905 0 905 0 0 5095 0 5095 5430 0 5430 0 0 910 0 910 -6335 0 -6335 0 0 -6005z"/>
 <path d="M10930 7700 l0 -2340 -2650 0 -2650 0 0 -870 0 -870 2213 0 c1218 0 2802 -3 3520 -7 l1307 -6 0 3216 0 3217 -870 0 -870 0 0 -2340z"/>
 <path d="M390 4490 l0 -870 905 0 905 0 0 870 0 870 -905 0 -905 0 0 -870z"/>
 </g>

</svg>