<!DOCTYPE svg PUBLIC "-//W3C//DTD SVG 20010904//EN" "http://www.w3.org/TR/2001/REC-SVG-20010904/DTD/svg10.dtd">
<svg version="1.0" xmlns="http://www.w3.org/2000/svg" width="1600px" height="1600px" viewBox="0 0 16000 16000" preserveAspectRatio="xMidYMid meet">
<g id="layer101" fill="#ffffff" stroke="none">
 <path d="M5660 10946 l0 -3504 -100 -129 c-55 -70 -108 -139 -119 -153 -33 -43 -148 -192 -208 -269 -67 -85 -103 -132 -230 -297 -50 -65 -144 -187 -210 -271 -65 -83 -149 -193 -188 -243 -90 -117 -91 -119 -172 -222 -37 -47 -108 -139 -158 -203 -49 -64 -111 -145 -137 -178 -27 -34 -52 -67 -56 -72 -18 -22 -138 -177 -162 -209 -14 -18 -54 -70 -90 -116 -36 -45 -74 -95 -85 -110 -11 -15 -49 -65 -85 -110 -98 -125 -206 -265 -380 -491 -41 -53 -124 -159 -183 -236 -59 -76 -116 -149 -127 -163 -11 -14 -65 -83 -120 -155 -56 -71 -136 -175 -178 -230 -41 -55 -93 -120 -114 -144 l-38 -44 0 -798 0 -799 5335 0 5335 0 0 809 0 809 -37 38 c-21 22 -105 127 -187 234 -83 107 -163 211 -178 230 -16 19 -32 40 -36 45 -4 6 -37 48 -72 94 -36 46 -76 99 -90 117 -14 18 -51 66 -82 106 -59 75 -72 93 -223 288 -122 158 -150 194 -225 290 -36 45 -74 95 -85 110 -21 29 -141 184 -162 210 -14 17 -126 161 -163 209 -14 19 -37 47 -51 65 -14 17 -60 76 -102 131 -65 86 -242 315 -295 382 -9 12 -48 63 -87 113 -38 50 -123 160 -188 243 -100 128 -191 246 -327 422 -14 18 -52 67 -85 109 -33 42 -71 92 -85 110 -14 18 -54 71 -90 117 -35 46 -68 89 -72 94 -4 6 -20 26 -36 45 -15 19 -74 94 -130 167 l-102 132 -1 2313 0 2313 -121 100 c-66 55 -132 110 -147 123 -14 13 -42 35 -61 50 -19 15 -40 32 -46 37 -6 6 -30 26 -54 45 -24 19 -105 87 -180 150 -75 63 -238 198 -361 300 -123 102 -291 241 -374 310 -82 69 -176 146 -207 172 -31 25 -54 48 -51 52 3 3 -5 15 -19 26 -43 33 -703 581 -811 673 -12 10 -37 31 -56 45 -18 15 -43 36 -56 47 -12 11 -42 36 -66 55 -23 19 -65 54 -93 78 l-50 42 -793 0 -793 0 0 -3504z m1721 1263 c69 -57 237 -196 374 -309 242 -200 445 -369 495 -414 14 -12 45 -37 69 -56 25 -19 53 -43 63 -53 17 -16 18 -100 18 -2156 0 -2130 0 -2139 20 -2162 21 -25 93 -118 220 -283 41 -54 111 -144 155 -200 44 -55 87 -111 95 -122 8 -12 44 -60 80 -105 35 -46 68 -88 72 -94 4 -5 20 -26 36 -45 29 -36 136 -174 272 -350 41 -54 118 -153 170 -220 52 -68 104 -135 115 -149 11 -14 53 -69 95 -122 41 -53 116 -149 165 -214 76 -99 111 -145 203 -260 32 -41 141 -183 157 -205 11 -15 49 -65 85 -110 36 -45 76 -97 90 -115 14 -18 54 -70 90 -116 35 -46 68 -88 72 -94 4 -5 20 -26 36 -45 16 -19 63 -80 105 -135 41 -55 121 -158 177 -230 55 -71 111 -143 123 -159 12 -16 61 -79 108 -140 l87 -111 -3391 -3 c-1865 -1 -3392 0 -3394 2 -3 2 15 29 39 58 47 59 127 161 236 303 4 6 39 50 77 100 39 49 82 105 97 125 15 19 62 80 105 136 73 94 198 257 215 279 4 6 20 26 36 45 15 19 79 102 142 184 118 152 243 313 258 331 4 6 37 48 72 94 36 46 85 110 110 142 25 32 72 93 105 136 33 43 114 147 180 231 66 85 129 166 140 182 11 15 49 65 85 110 36 45 74 95 85 110 11 15 49 65 85 110 71 92 100 128 211 271 84 109 302 390 398 513 34 44 65 87 68 94 3 6 11 12 19 12 12 0 14 395 14 2672 0 2543 1 2670 18 2656 9 -8 74 -62 143 -119z"/>
 </g>

</svg>