<!DOCTYPE svg PUBLIC "-//W3C//DTD SVG 20010904//EN" "http://www.w3.org/TR/2001/REC-SVG-20010904/DTD/svg10.dtd">
<svg version="1.0" xmlns="http://www.w3.org/2000/svg" width="1600px" height="1600px" viewBox="0 0 16000 16000" preserveAspectRatio="xMidYMid meet">
<g id="layer101" fill="#ffffff" stroke="none">
 <path d="M770 12495 c0 -1521 3 -2765 6 -2765 3 0 471 466 1040 1035 569 569 1038 1035 1042 1035 4 0 2005 -1998 4446 -4439 l4440 -4440 -1025 -1024 c-563 -564 -1035 -1037 -1048 -1051 l-24 -26 2781 0 2782 0 0 2757 0 2758 -1083 -1083 -1083 -1083 -4450 4450 -4450 4450 1095 1095 1096 1096 -2783 0 -2782 0 0 -2765z"/>
 </g>

</svg>