<!DOCTYPE svg PUBLIC "-//W3C//DTD SVG 20010904//EN" "http://www.w3.org/TR/2001/REC-SVG-20010904/DTD/svg10.dtd">
<svg version="1.0" xmlns="http://www.w3.org/2000/svg" width="1600px" height="1600px" viewBox="0 0 16000 16000" preserveAspectRatio="xMidYMid meet">
<g id="layer101" fill="#ffffff" stroke="none">
 <path d="M2780 13181 c0 -5 59 -145 131 -312 72 -167 141 -329 154 -359 12 -30 111 -262 220 -515 234 -542 250 -579 305 -710 23 -55 57 -136 77 -180 19 -44 41 -93 48 -110 7 -16 190 -442 406 -945 216 -503 408 -951 427 -995 19 -44 46 -109 62 -145 47 -114 417 -974 434 -1010 8 -19 76 -177 150 -350 74 -173 198 -463 276 -645 78 -181 155 -359 170 -395 21 -52 288 -673 457 -1065 19 -44 45 -105 58 -135 12 -30 99 -233 192 -450 354 -822 687 -1598 717 -1670 l32 -75 1000 -3 1000 -2 162 377 c89 208 216 504 282 658 67 154 130 300 140 325 10 25 33 81 52 125 19 44 123 285 230 535 108 250 203 471 212 490 8 19 76 177 150 350 74 173 198 464 276 645 79 182 155 359 170 395 37 90 414 967 434 1010 8 19 35 82 60 140 24 58 135 317 246 575 112 259 213 495 225 525 13 30 39 91 58 135 19 44 149 348 290 675 140 327 346 807 457 1065 111 259 215 499 230 535 15 36 103 241 195 455 92 215 180 419 195 455 15 36 78 182 140 325 61 143 114 266 117 273 4 10 -196 12 -997 10 l-1002 -3 -210 -490 c-115 -269 -228 -533 -250 -585 -22 -52 -109 -255 -193 -450 l-151 -355 -2516 -3 -2515 -2 -23 52 c-40 94 -86 199 -174 403 -48 110 -123 281 -166 380 -43 99 -104 239 -135 310 -32 72 -70 159 -85 195 -97 225 -184 425 -219 503 l-22 47 -989 0 c-571 0 -990 -4 -990 -9z m7090 -3666 c0 -6 -63 -161 -155 -380 -80 -191 -159 -379 -190 -455 -12 -30 -64 -154 -115 -275 -51 -121 -102 -245 -115 -275 -22 -55 -146 -353 -210 -505 -18 -44 -59 -141 -90 -215 -30 -74 -65 -155 -75 -180 -11 -25 -60 -144 -110 -265 -50 -121 -102 -245 -115 -275 -22 -49 -80 -188 -151 -362 -55 -133 -79 -192 -249 -598 -97 -234 -183 -436 -190 -449 -12 -24 -12 -23 -28 20 -8 24 -40 103 -70 174 -103 244 -310 740 -332 795 -13 30 -76 181 -140 335 -64 154 -139 334 -167 400 -81 197 -112 269 -208 500 -51 121 -103 245 -115 275 -13 30 -45 109 -73 175 -27 66 -80 192 -117 280 -37 88 -89 214 -117 280 -27 66 -64 156 -83 200 -18 44 -86 206 -150 360 -106 254 -150 358 -175 423 l-10 22 1775 0 c976 0 1775 -2 1775 -5z"/>
 </g>

</svg>