<!DOCTYPE svg PUBLIC "-//W3C//DTD SVG 20010904//EN" "http://www.w3.org/TR/2001/REC-SVG-20010904/DTD/svg10.dtd">
<svg version="1.0" xmlns="http://www.w3.org/2000/svg" width="373px" height="373px" viewBox="0 0 3730 3730" preserveAspectRatio="xMidYMid meet">
<g id="layer101" fill="#b2b2b2" stroke="none">
 <path d="M297 3464 l-248 -245 660 -668 660 -667 -662 -662 -662 -662 253 -252 252 -253 662 663 663 662 662 -662 663 -663 252 253 253 252 -663 663 -662 662 662 668 661 668 -24 23 c-13 12 -127 123 -252 246 l-228 224 -662 -662 -662 -662 -660 660 c-363 363 -662 660 -665 660 -3 -1 -117 -111 -253 -246z"/>
 </g>

</svg>